{"title":"AB TAK CHHAPPAN 2 2015 DVDSCR XVID AAC HINDI ","uid":11744493,"size":388176110,"categoryP":"video","categoryS":"movies_dvdr","magnet":"?xt=urn:btih:451e53db319d0af453500a6eddc796d34f392141&amp;dn=AB+TAK+CHHAPPAN+2+2015+DVDSCR+XVID+AAC+HINDI+&amp;tr=udp%3A%2F%2Ftracker.openbittorrent.com%3A80&amp;tr=udp%3A%2F%2Fopen.demonii.com%3A1337&amp;tr=udp%3A%2F%2Ftracker.coppersurfer.tk%3A6969&amp;tr=udp%3A%2F%2Fexodus.desync.com%3A6969","seeders":9,"leechers":0,"uploader":"mbtorrents","files":1,"time":1425939361,"description":"Format : Flash Video \nFile size : 370 MiB \nDuration : 1h 42mn \nOverall bit rate : 503 Kbps \nTagging application : Yet Another Metadata Injector for FLV - Version 1.9 \n\nVideo \nFormat : AVC \nFormat/Info : Advanced Video Codec \nFormat profile : &lt;a class=&quot;__cf_email__&quot; href=&quot;/cdn-cgi/l/email-protection&quot; data-cfemail=&quot;bef6d7d9d6fef28c908f&quot;&gt;[email&amp;#160;protected]&lt;/a&gt;&lt;script cf-hash='f9e31' type=&quot;text/javascript&quot;&gt;\n/* &lt;![CDATA[ */!function(){try{var t=&quot;currentScript&quot;in document?document.currentScript:function(){for(var t=document.getElementsByTagName(&quot;script&quot;),e=t.length;e--;)if(t[e].getAttribute(&quot;cf-hash&quot;))return t[e]}();if(t&amp;&amp;t.previousSibling){var e,r,n,i,c=t.previousSibling,a=c.getAttribute(&quot;data-cfemail&quot;);if(a){for(e=&quot;&quot;,r=parseInt(a.substr(0,2),16),n=2;a.length-n;n+=2)i=parseInt(a.substr(n,2),16)^r,e+=String.fromCharCode(i);e=document.createTextNode(e),c.parentNode.replaceChild(e,c)}}}catch(u){}}();/* ]]&gt; */&lt;/script&gt; \nFormat settings, CABAC : Yes \nFormat settings, ReFrames : 4 frames \nCodec ID : 7 \nDuration : 1h 42mn \nBit rate : 388 Kbps \nWidth : 640 pixels \nHeight : 272 pixels \nDisplay aspect ratio : 2.35:1 \nFrame rate mode : Constant \nFrame rate : 23.976 fps \nColor space : YUV \nChroma subsampling : 4:2:0 \nBit depth : 8 bits \nScan type : Progressive \nBits/(Pixel*Frame) : 0.093 \nStream size : 293 MiB (79%) \nWriting library : x264 core 138 \nEncoding settings : cabac=1 / ref=2 / deblock=1:0:0 / analyse=0x3:0x113 / me=hex / subme=4 / psy=1 / psy_rd=1.00:0.00 / mixed_ref=0 / me_range=16 / chroma_me=1 / trellis=1 / 8x8dct=1 / cqm=0 / deadzone=21,11 / fast_pskip=1 / chroma_qp_offset=0 / threads=18 / lookahead_threads=2 / sliced_threads=0 / nr=0 / decimate=1 / interlaced=0 / bluray_compat=0 / constrained_intra=0 / bframes=3 / b_pyramid=2 / b_adapt=1 / b_bias=0 / direct=1 / weightb=1 / open_gop=0 / weightp=1 / keyint=250 / keyint_min=23 / scenecut=40 / intra_refresh=0 / rc_lookahead=20 / rc=crf / mbtree=1 / crf=26.0 / qcomp=0.60 / qpmin=0 / qpmax=69 / qpstep=4 / vbv_maxrate=1200 / vbv_bufsize=4000 / crf_max=0.0 / nal_hrd=none / ip_ratio=1.40 / aq=1:1.00 \n\nAudio \nFormat : AAC \nFormat/Info : Advanced Audio Codec \nFormat profile : LC \nCodec ID : 10 \nDuration : 1h 42mn \nBit rate : 96.1 Kbps \nChannel(s) : 2 channels \nChannel positions : Front: L R \nSampling rate : 44.1 KHz \nCompression mode : Lossy \nDelay relative to video : 47ms \nStream size : 75.1 MiB (20%) \n\nScreens: &lt;a href=&quot;\nhttp://movimg.net/viewer.php?file=53ooxbhvkiuv13dwi5ln.png&quot; rel=&quot;nofollow&quot; target=&quot;_NEW&quot;&gt;\nhttp://movimg.net/viewer.php?file=53ooxbhvkiuv13dwi5ln.png&lt;/a&gt; &lt;a href=&quot;\nhttp://movimg.net/viewer.php?file=mdqwlbqe3jzrfi58ge2k.png&quot; rel=&quot;nofollow&quot; target=&quot;_NEW&quot;&gt;\nhttp://movimg.net/viewer.php?file=mdqwlbqe3jzrfi58ge2k.png&lt;/a&gt; &lt;a href=&quot;\nhttp://movimg.net/users.php?act=register&quot; rel=&quot;nofollow&quot; target=&quot;_NEW&quot;&gt;\nhttp://movimg.net/users.php?act=register&lt;/a&gt;","torrent":{"xt":"urn:btih:451e53db319d0af453500a6eddc796d34f392141","amp;dn":"AB+TAK+CHHAPPAN+2+2015+DVDSCR+XVID+AAC+HINDI+","amp;tr":["udp%3A%2F%2Ftracker.openbittorrent.com%3A80","udp%3A%2F%2Fopen.demonii.com%3A1337","udp%3A%2F%2Ftracker.coppersurfer.tk%3A6969","udp%3A%2F%2Fexodus.desync.com%3A6969"],"infoHash":"451e53db319d0af453500a6eddc796d34f392141","infoHashBuffer":{"type":"Buffer","data":[69,30,83,219,49,157,10,244,83,80,10,110,221,199,150,211,79,57,33,65]},"announce":[],"urlList":[]}}